<svg version="1" xmlns="http://www.w3.org/2000/svg" width="682.667" height="682.667" viewBox="0 0 512.000000 512.000000"><path d="M234 .6c-9 .9-29.7 4.5-39.9 7-34.2 8.4-70.6 26.7-99.6 50.1-12.6 10.2-32.8 30.9-42.3 43.6C27.4 134.2 10.6 173.4 4 213.5-6.5 277.4 7 342.8 41.8 396c9.4 14.4 19.2 26.4 32.5 39.9 21.4 21.7 41.1 35.8 70.2 50.1 24.5 12.1 43 18.1 71 23.1 17.4 3 51.2 3.8 69.5 1.5 43-5.5 77.6-18.3 113.8-42.3 59.5-39.4 99.8-103.2 110.2-174.5 9.2-62.4-4.9-126.9-38.9-177.9-11.6-17.5-19.9-27.6-33.6-41.2C398.1 36.4 349.3 11.9 293 2.4 283.7.9 244.1-.3 234 .6zm44 9.5c57.5 5.3 107.3 28.1 150.4 68.9 30.4 28.8 55 71 66.1 113.4 5.7 21.7 7.6 34.9 8.2 57.1.8 30.5-2.7 55-11.7 82.7-16.1 49.1-45.3 90.1-85.9 120.6-34 25.6-67.5 40-110.7 47.4-17.5 3-55.9 3.2-73.4.5-53.8-8.5-96-29.2-136.9-67.3C53.4 404.7 27.6 360 16.7 316c-5.9-23.5-8.2-45.2-7.4-68.5 1.8-46.9 16.2-90.8 43-131 17.2-25.8 41.6-49.4 71.2-68.7C167.6 18.9 224.1 5.1 278 10.1z"/><path d="M185.6 33.2c-4.3 1.6-7.3 4.6-9.1 9.1-1.5 3.7-1.4 7.2.4 45.1 2.5 49.2 2.7 52.2 4.8 56.2 3.8 7.4 15.6 10.5 22 5.8 5.2-3.9 7.3-8.1 7.3-14.8 0-8.6-3.8-83.3-4.5-88.1-.8-5.7-4-10.1-8.9-12.4-4.6-2.3-7.6-2.5-12-.9zM308.7 35.1c-6.7 3.5-10 11.8-7.6 19.1 2.4 7.4 10.9 12 18.6 9.9 8-2.2 12.6-8.1 12.5-15.9-.3-11.9-12.7-18.8-23.5-13.1zM319.5 81.4c-6.7 1.6-22.5 7-26.9 9.3-7.1 3.7-23 16.5-33.2 26.7-17.7 17.9-31.2 39.7-53 86-16.2 34.2-30.4 57.9-46.1 76.8-15.8 19-52.2 54.6-73.3 71.5-10 8.1-11.8 11.5-10 18.4 1.6 5.8 7 10.8 16.3 15.3 12.1 5.9 18.1 6.9 34.7 6.3 14.9-.6 22.2-1.5 51.5-6.7 24.2-4.2 31.8-5 60-5.6 28.2-.7 40.8.2 70.5 4.6 52.7 8 65.1 8 79.3.3 10-5.5 23.2-22.9 28.6-37.8 5.5-15.2 7.5-33.6 5.1-46.6-1.3-7.3-2.7-9.5-6.7-11.4-4.4-2.1-8.5-1.2-11.8 2.7-2.5 3-2.6 3.4-2 12.7l.5 9.6-1.9-7c-4.4-15.8-13.6-31.2-25.1-41.8-8.5-7.8-17.1-13.1-19.9-12.2-3.2 1-2.5 3.3 2.5 8.7 11.3 12.1 20.1 42 23.5 79.8.6 6.9.9 14.7.7 17.5-.3 4.3-.7 5.2-3.7 7.2-1.9 1.3-3.9 2.3-4.5 2.3-.8 0-1-3.4-.8-10.7 1.2-39-14.2-74.9-37.1-86.3-6.4-3.2-10.5-3.8-11.3-1.7-.2.7 1.5 4.3 4 7.9 10.8 16.3 17.4 44 16.3 69.3-.5 13-2.2 21.5-4.2 21.5-4.1 0-4.5-1-4.5-10.9 0-36.5-12.3-67-32.7-81.2-8.3-5.8-10-3-5 7.9 6.8 15 13.8 42.5 13.7 53.5-.1 2.8-.4 2.4-2.4-2.8-5.4-13.9-13-26.6-20.8-34.4-4.6-4.7-12.4-10.1-14.5-10.1-2.8 0-2.4 4.6 1.2 12.3 3.2 7 10.5 32.4 10.5 36.5 0 .9-1.3-.6-2.8-3.3-7.2-13.1-17.5-24.3-27.1-29.4-6.4-3.4-8.3-3.8-9.9-1.8-.8.9.2 3.2 3.7 8.7 7.3 11.3 12.6 26.4 14.6 40.9l.7 5.3-4.3-.7c-2.4-.4-4.4-.8-4.5-.9 0 0-.5-2.7-1.2-6-1.9-9.7-7.7-20-15.7-28-10.3-10.4-19.5-14.5-19.5-8.8 0 1.1 1.5 4.5 3.4 7.7 5.2 8.6 7.7 16.8 8.3 27.2l.6 9.3h-2.5c-1.9 0-2.8-.9-4.2-4.1-2.8-6.2-12.4-15.4-19.8-18.9-13.5-6.3-16.7-4.7-9.7 5.3 4.2 6 7.9 14.2 7.9 17.6 0 1.6-1.1 1.9-7.1 2.5l-7.1.7-3.5-4.1c-6.3-7.3-14-10.9-17.1-7.8-.8.8-.8 1.9.3 4.4.7 1.8 1.5 4.9 1.7 7.1l.3 3.8-10 1.7c-5.8 1-10.1 1.4-10.3.9-.2-.6-1.6-2.8-3.2-4.9-2.7-3.8-2.8-4-.9-4.5 2.4-.7 6.6-9.5 8-17.2 1.2-6.4.5-13-1.7-18.4-1.3-3.2-1.3-3.6.8-5.8 2.7-2.9 3.2-2.9 5.9-.1 3.5 3.7 8 14.3 9.3 22.1 1 6.1 1.6 7.2 3.3 7.5 1.7.3 2.5-.7 4.2-5.3 6-15.9 5.5-30.3-1.4-40.6-2.8-4.4-2.6-6.5.6-4.8 5.8 3.1 14.9 20.7 14.9 28.9 0 1.5.7 3.3 1.6 4 2.2 1.9 3.7-.2 5.9-8 3.8-13.6 1.2-31-6-40.5-1.9-2.5-3.1-4.5-2.7-4.5 2.2 0 9.8 6.9 13.8 12.6 4.6 6.4 10.3 18.4 10.4 21.6 0 2.4 3.5 4.2 4.8 2.5.6-.7 1.6-5.1 2.2-9.8 2.2-16.5-3.3-34.8-13.5-45.4-3.8-3.9-4.4-4.9-3.5-6.6 1.1-2 1.1-2 3.9 0 11.2 8 24.6 30.3 28.2 47 1 4.7 3.3 7.2 5 5.4 1.7-1.9 5.9-15.8 6.9-23.3 2.9-21.4-6.5-46.6-22-58.9-3.2-2.5-4.5-4.2-4-5.1.6-1 1.2-1 3.1.1 13.9 7.4 28.9 31.5 32.5 52.3 1.5 8.7 2.2 10 4.7 9 6.1-2.3 9-35 4.8-54-3.6-16.5-9.3-27.5-19.9-38.6-5.7-5.9-6.2-6.9-5.2-8.7l1.1-2.2 2.9 2.1c13.6 9.7 30.4 43.2 40 79.8.9 3.6 1.5 4.3 3.3 4 3.1-.4 4.8-6.1 5.4-18.3 1.6-29.4-13.2-76.1-29.4-92.7-3.6-3.7-3.6-4.4-.5-8 1.4-1.7 1.7-1.6 3.9 1.5 16.1 21.3 36.1 68 42.3 98.6 2.4 12 2.5 12.1 5 12.1s6.6-8.5 8.6-18c1.2-5.7 1.5-10.6 1-20.5-1.1-26.6-9.7-55.9-25.4-86.9-6.2-12.4-6.4-13-4.6-14.3 1.7-1.3 2.2-1.1 4.7 1.9 4.1 4.8 11.2 18.1 18.8 35.3 10 22.4 16.1 40.9 19.5 59.3.4 1.7 1 2.2 2.6 2 1.9-.3 2.5-1.7 4.6-12.3 2.1-10.4 2.4-15.1 2.5-35.5.2-25-.7-32.7-5.7-51.5-1.3-4.7-2-8.5-1.6-8.5 1.7 0 10.9 6.9 15.6 11.8 10.5 10.6 18.3 26.1 21.9 43.5 2.1 10.1 16.6 10.2 19.4.2 1.1-4.1-.8-12.8-5.9-25.7-14.1-36.4-45.6-58.9-73.5-52.4zm17.4 28.8c5.4 17 6.5 26.7 6.6 54 0 15.9-.4 25.1-1 25.7-.8.8-2-1.6-3.9-7.7-7.3-22.5-21.6-54.2-30-66.6-2.5-3.8-4.5-7-4.4-7 8.5-4.4 18.4-7.4 25-7.5l4.7-.1 3 9.2zm-38.9 24c8.6 17.6 16.7 40.4 20 56.3 2.7 13 3.7 33.4 2 42.7-.7 3.8-1.5 6.6-1.9 6.1-.4-.4-1.3-3.3-2-6.3-6.4-27.1-23.3-66.5-37.5-87.9l-7.4-11.1 9.1-8c5.1-4.4 9.3-8 9.5-8 .2 0 3.9 7.3 8.2 16.2zm-35.8 18.5c14 15.3 26.3 50.9 27.5 79.8l.4 12-4.1-12c-5.1-15-15.3-36.2-22.1-46.1-2.9-4.2-7.9-9.9-11.1-12.8l-5.8-5.3 5.7-9.1c3.2-5.1 6-9.2 6.3-9.2.4 0 1.8 1.2 3.2 2.7zM251.8 198c9.2 13.8 14.3 35.5 12.6 54.2-.7 8.4-1.4 8.8-3.4 2.3-4.8-15.3-18.2-34.4-29-41.4l-5.7-3.7 5.3-11.4c7.3-15.4 6.8-15 12.1-9.8 2.4 2.4 6.1 6.8 8.1 9.8zm-22.1 33.7c7.6 9.5 12.9 23 14 35.8.6 7.2-1.2 21.9-2.6 21-.5-.2-1.8-3-2.9-6.2-3.6-9.7-11.9-22.2-20.6-30.8l-8.1-8.1 5.3-10.2 5.3-10.2 3.3 2.5c1.8 1.3 4.6 4.2 6.3 6.2zM205.3 263c6.6 7.2 11.6 20.6 11.7 30.9 0 3.4 0 3.4-3.7-2.7-5.2-8.5-10.4-14.4-15.7-17.9l-4.4-3 3.6-5.6c2-3.1 4-5.7 4.3-5.7.4 0 2.3 1.8 4.2 4zm181.3 24c8.1 13.7 13.6 37.1 12 50.4-.6 4.8-5.4 14.7-8.6 18-.4.4-1.1-2.3-1.4-6-3.1-35.5-7.8-58.6-15.7-76.4l-2.9-6.5 6.1 6.5c3.4 3.6 8.1 9.9 10.5 14zm-40.3-1c7.2 7.7 14.8 22.9 18.3 36.5 2.3 8.9 2.7 12.1 2.8 28.5l.1 18.5-8.9-.3c-4.9-.1-9.1-.4-9.3-.6-.2-.2.4-4.5 1.3-9.7 3.8-21.5-1.7-57.4-11.8-77.2-1.9-3.7-1.9-3.8 0-2.8 1 .6 4.4 3.7 7.5 7.1zM193 291.8c1.9 5 4 20.2 2.8 20.2-.3 0-1.8-2.6-3.4-5.7-1.5-3.1-5.1-8.1-7.9-11l-5.2-5.4 3.5-4.6 3.5-4.6 2.4 2.9c1.3 1.6 3.2 5.3 4.3 8.2zm122.9 4.6c9.2 14.1 13.9 31.5 14.8 54.3.7 17 1.2 15.8-6.8 14.7l-4.4-.6-.2-14.7c-.2-16.9-2.5-32-7.6-49.1-1.9-6.3-3.8-12.4-4.2-13.5-1.5-3.7 4.1 2.3 8.4 8.9zm-142.5 10.8c2.2 4.4 2.6 6.5 2.6 13.9 0 4.8-.4 9.1-1 9.4-.5.3-1 0-1-.7 0-2.6-5.8-13.4-8.9-16.7l-3.2-3.4 3.8-3.9c2-2.1 4-3.8 4.4-3.8.4 0 1.9 2.3 3.3 5.2zM293 313c8.1 11.8 14.6 27.9 17.4 42.9l1.4 7.3-6.1-.7c-12.4-1.4-11.7-.8-11.7-8.5 0-11.8-5.4-37.5-10.5-50.5-1.3-3.3 5.2 3.2 9.5 9.5zm-19 17c2 3 4.8 7.7 6.2 10.5 3 5.9 7.2 18.4 6.5 19.1-.3.3-3.7.2-7.5-.2-7.5-.7-8.2-1.3-8.2-7.5 0-4.8-5-22-8.5-29.7-1.9-4.1-3.5-7.7-3.5-8.1 0-1.3 11.5 10.9 15 15.9zm-123.1 4.8c.1 4.6-1.7 13.2-2.8 13.1-.3 0-2.3-3.5-4.3-7.7l-3.7-7.7 4.2-4.3 4.2-4.3 1.2 3.3c.6 1.8 1.2 5.2 1.2 7.6zm87.4-5.6c2.4 2.9 5.3 6.9 6.5 8.9 2.7 4.5 6.2 14.4 6.2 17.6 0 2.2-.4 2.3-6 2.3h-6v-5.6c0-6.4-2.4-17.9-5.1-24.1-1-2.4-1.4-4.3-.9-4.3.4 0 2.8 2.4 5.3 5.2zM140.2 345c1.1 2.5 2.3 6.4 2.7 8.6l.8 4.1-2.7-1.5c-1.5-.9-3.5-1.2-4.4-.9-1.5.6-1.7 1.5-1.1 6.5.9 7.9-.3 9.3-8.6 9.9-7 .6-15.6-.7-21.4-3.1l-3.7-1.6 7.1-6.1c7.6-6.5 9.6-6.9 10.6-2.2 1.4 6.5 3.4 7.6 7 3.7 3.6-3.8 5-9.8 3.6-15.4-1-4.4-.9-4.6 2.1-7.4 3-2.8 3.2-2.8 4.6-1 .8 1.1 2.3 3.9 3.4 6.4zm73.3 2.3c2.2 1.9 5 5.3 6.3 7.6 2.1 3.8 2.2 4.1.5 4.1-1 0-3.4.3-5.4.6-3.5.6-3.7.5-4.3-2.7-.3-1.9-1.9-6.2-3.6-9.7l-2.9-6.2 2.7 1.4c1.5.8 4.5 3 6.7 4.9zm-88.9 6.5c-.4.3-1.3-.3-2-1.4-1.3-1.7-1.2-2.1.2-3.8 1.6-1.8 1.7-1.7 2 1.4.2 1.7.1 3.5-.2 3.8zm57.2 6.5c2.5 2.6 2 3.7-1.5 3.7-1.9 0-2.3-.5-2.3-3 0-3.6.9-3.8 3.8-.7zm-35.8 8.9c0 .5-1.1.8-2.5.8-2.7 0-2.8-.3-1.8-3.9l.6-2.4 1.8 2.4c1 1.3 1.9 2.7 1.9 3.1zM138.3 105.1c-4.4.9-8 3.4-10.4 7.2-2 3.1-2 4.2-1.4 28 .7 27.8 1.5 34.4 4.5 38.7 7.6 10.7 25 6.9 27.9-6.1.4-1.9.2-15.4-.4-30.1-1.1-24.7-1.4-26.9-3.5-30.3-3.7-6-10.1-8.9-16.7-7.4zM444.3 126.9c-4.4 2.1-6.8 4.9-8.3 10-1.2 4.2.8 125.2 2.2 130.6 1.3 5.2 7.3 11 12.1 11.8 8.2 1.3 16.9-4.3 18.3-11.9 1.3-6.7-1.2-128.5-2.7-131.9-1.8-4.3-4.9-7.5-8.8-9.1-4.5-1.9-7.8-1.7-12.8.5zM41.6 164.2c-5.4 3.2-7.8 6.8-8.4 12.7-1.4 15.1 17.3 22.6 28.2 11.2 2.4-2.5 3-4.2 3.4-8.8.3-4.8 0-6.4-2-9.2-3.4-5-6.7-7.1-12.3-7.7-4-.4-5.8 0-8.9 1.8zM138.3 199.7c-7.1 4.6-9.6 13.3-6 20.5 4.5 8.8 14.2 11.5 22.4 6.1 5.4-3.4 7.7-8.5 7.1-15.1-1.1-11.9-13.6-18-23.5-11.5zM44.7 218.2C40 221 37 226.9 37 233.6c0 9.4 4.1 66.9 5.1 70.5 2 7.8 11 13 18.8 10.9 5.2-1.4 8.4-4.1 10.6-8.9 1.8-4 1.8-5-.5-39.9-2-32-2.5-36.2-4.5-40.8-1.8-4.1-3.1-5.5-6.7-7.3-5.6-2.7-10.3-2.6-15.1.1z"/><path d="M100.6 256.3c-4.6 2.9-7.5 7.8-7.6 12.9 0 7.5 3.1 27 4.8 29.6 4 6.3 11.4 9.3 17.7 7.2 5.5-1.8 10.1-7 10.9-12.2.8-5.6-1.9-27.5-4-31.6-3.7-7.6-14.4-10.5-21.8-5.9zM448.4 328.9c-4.6 2.8-7.4 8-7.4 13.7 0 5.9 2.3 9.8 7.7 13.1 4.7 2.8 9.4 2.9 14.9.2 4.7-2.2 8.4-8.2 8.4-13.6 0-4.5-4-11.3-8-13.4-4.5-2.5-11.6-2.4-15.6 0zM248.9 382.2c-2 1.1-4.7 3.8-5.9 5.9-2.1 3.8-2.1 4.6-1.5 25.7.7 26.3.8 27.1 4.3 30.8 7.6 8.2 20.9 6.8 25.8-2.9 3.7-7 2.7-47.1-1.3-53.9-4.4-7.6-13.9-10-21.4-5.6zM309.3 395.1c-1.8 1.1-4.3 3.7-5.5 5.7-2.3 3.7-2.3 4-2 32.7.1 15.9.5 30.7.8 32.9.8 4.8 7.1 11.3 11.9 12.2 7.6 1.4 14.1-2 17.6-9.2 2.2-4.6 2.2-5.1 1.6-34.5-.5-28.8-.6-30-2.9-34-4.1-7.4-14.6-10.2-21.5-5.8zM164 397.8c-4 1.8-6.9 4.6-8.5 8.2-1.6 3.7-1.8 6.3-1.2 29 .6 23.7.7 25.3 2.9 29.2 4.3 7.8 12.2 10.3 20.4 6.3 5.3-2.6 7.7-6.1 8.8-12.6.3-1.9.3-13.8-.2-26.4-.8-25.6-1.4-27.7-8.2-32.2-3.3-2.3-10.6-3-14-1.5zM353.9 420.3c-6.3 4.2-8.9 14-5.4 20.7 2.2 4.3 7.9 8.2 12.8 8.7 5.4.6 11.5-2.2 14.8-6.9 3-4.2 3.2-11.9.3-16.8-4.3-7.5-15.6-10.3-22.5-5.7zM253.3 465.7c-4.9 2.8-7.6 6.9-8.1 12.6-.9 9.3 4.9 15.8 14.9 16.5 10 .7 16.9-5.6 16.9-15.5 0-5.3-1.8-8.8-6.4-12.4-3.9-3.1-12.8-3.7-17.3-1.2z"/></svg>